<svg width="32" height="32" viewBox="0 0 680 680" xmlns="http://www.w3.org/2000/svg">
<title>SmartProps icon</title>
<desc>Document with a folded top-right corner, three white AI sparkle stars, two blue lines, a green serif dollar sign, and a navy checkmark bleeding onto a green gradient background.</desc>
<defs>
<linearGradient id="bgGrad" x1="0" y1="0" x2="1" y2="1">
<stop offset="0%" stop-color="#8FC24E"/>
<stop offset="100%" stop-color="#1B3D08"/>
</linearGradient>
<linearGradient id="foldGrad" x1="0" y1="0" x2="1" y2="1">
<stop offset="0%" stop-color="#D6D6D0"/>
<stop offset="100%" stop-color="#B4B4AD"/>
</linearGradient>
</defs>

<rect x="20" y="20" width="640" height="640" rx="140" fill="url(#bgGrad)"/>

<path d="M 200,194 A 24,24 0 0 1 224,170 L 440,170 L 500,230 L 500,536 A 24,24 0 0 1 476,560 L 224,560 A 24,24 0 0 1 200,536 Z" fill="#ffffff"/>

<polygon points="440,170 500,230 440,230" fill="url(#foldGrad)"/>
<line x1="440" y1="170" x2="440" y2="230" stroke="#9B9B93" stroke-width="1.5"/>
<line x1="440" y1="230" x2="500" y2="230" stroke="#9B9B93" stroke-width="1.5"/>

<path d="M 560,85 Q 566,119 600,125 Q 566,131 560,165 Q 554,131 520,125 Q 554,119 560,85 Z" fill="#ffffff"/>
<path d="M 520,161 Q 524,171 534,175 Q 524,179 520,189 Q 516,179 506,175 Q 516,171 520,161 Z" fill="#ffffff"/>
<path d="M 603,94 Q 604,101 612,103 Q 604,105 603,112 Q 602,105 594,103 Q 602,101 603,94 Z" fill="#ffffff"/>

<line x1="235" y1="205" x2="365" y2="205" stroke="#185FA5" stroke-width="16" stroke-linecap="round"/>
<line x1="235" y1="245" x2="365" y2="245" stroke="#185FA5" stroke-width="16" stroke-linecap="round"/>

<text x="335" y="520" text-anchor="middle" font-family="Georgia, 'Times New Roman', 'Liberation Serif', 'DejaVu Serif', serif" font-size="260" font-weight="700" fill="#2C5A0E" stroke="#2C5A0E" stroke-width="6">$</text>

<path d="M 450,465 L 472,487 L 525,420" fill="none" stroke="#062C4F" stroke-width="20" stroke-linecap="round" stroke-linejoin="round"/>
</svg>
